<svg width="136" height="139" viewBox="0 0 136 139" fill="none" xmlns="http://www.w3.org/2000/svg">
<g filter="url(#filter0_d_0_1386)">
<ellipse cx="67.6828" cy="66.3291" rx="64.6828" ry="66.3291" fill="#C76C1B"/>
</g>
<ellipse cx="67.6828" cy="63.3884" rx="64.6828" ry="63.3884" fill="#EB9F0E"/>
<ellipse cx="67.6828" cy="63.3884" rx="64.6828" ry="63.3884" fill="url(#paint0_linear_0_1386)"/>
<ellipse cx="67.6828" cy="64.6953" rx="49.6555" ry="49.6651" fill="#BABFD4"/>
<ellipse cx="67.6828" cy="67.3093" rx="49.6555" ry="47.0512" fill="url(#paint1_linear_0_1386)"/>
<path d="M54.7199 64.2702L60.0836 56.7269C57.8541 56.3553 53.7602 56.2729 50.4067 59.627C45.1205 64.9142 42.9797 76.3358 42.5334 79.1006L55.9683 92.5381C58.3868 92.331 69.0949 90.9011 79.413 80.581C79.5225 80.3582 82.0358 78.5006 79.981 76.4453C79.0002 75.4643 77.3766 75.4826 76.3745 76.4849C75.8644 76.9952 75.0709 77.0027 74.5713 76.503C74.0718 76.0034 74.0793 75.2097 74.5894 74.6995L78.2354 71.0528C80.0883 69.1995 78.3418 66.0731 75.7558 66.8241L72.7708 69.38C72.2256 69.8553 71.4154 69.7729 70.9674 69.255C70.5044 68.7188 70.6034 67.907 71.1302 67.45C81.5571 58.3 80.035 59.4019 86.7429 53.1131C89.2493 51.0259 86.0965 47.334 83.6267 49.4478L67.3989 64.0436C66.9268 64.4458 66.2032 64.4534 65.7387 64.0253C65.2025 63.5622 65.1902 62.895 65.5407 62.3679L76.86 44.7674C78.5145 42.5262 75.2582 40.0371 73.5155 42.2965L56.7791 65.7082C56.3755 66.2918 55.5622 66.4257 55.0078 66.0175C54.4518 65.6442 54.2996 64.8338 54.7199 64.2702Z" fill="#3B4262"/>
<defs>
<filter id="filter0_d_0_1386" x="0" y="0" width="135.366" height="138.658" filterUnits="userSpaceOnUse" color-interpolation-filters="sRGB">
<feFlood flood-opacity="0" result="BackgroundImageFix"/>
<feColorMatrix in="SourceAlpha" type="matrix" values="0 0 0 0 0 0 0 0 0 0 0 0 0 0 0 0 0 0 127 0" result="hardAlpha"/>
<feOffset dy="3"/>
<feGaussianBlur stdDeviation="1.5"/>
<feColorMatrix type="matrix" values="0 0 0 0 0 0 0 0 0 0 0 0 0 0 0 0 0 0 0.196706 0"/>
<feBlend mode="normal" in2="BackgroundImageFix" result="effect1_dropShadow_0_1386"/>
<feBlend mode="normal" in="SourceGraphic" in2="effect1_dropShadow_0_1386" result="shape"/>
</filter>
<linearGradient id="paint0_linear_0_1386" x1="3" y1="0" x2="3" y2="126.777" gradientUnits="userSpaceOnUse">
<stop stop-color="white" stop-opacity="0.0966455"/>
<stop offset="1" stop-color="white" stop-opacity="0.01"/>
</linearGradient>
<linearGradient id="paint1_linear_0_1386" x1="116.515" y1="114.36" x2="116.515" y2="21.8179" gradientUnits="userSpaceOnUse">
<stop stop-color="#F3F3F3"/>
<stop offset="1" stop-color="#DADADA"/>
</linearGradient>
</defs>
</svg>
